<svg height="512" viewBox="0 0 58 59" width="512" xmlns="http://www.w3.org/2000/svg"><g id="Page-1" fill="none" fill-rule="evenodd"><g id="050---Fishing" fill-rule="nonzero"><path id="Shape" d="m49.005 36c-2.2063175-.0087492-3.9934946-1.7936951-4.005-4 0-.5522847.4477153-1 1-1s1 .4477153 1 1c0 1.1045695.8954305 2 2 2s2-.8954305 2-2-.8954305-2-2-2c-.5522847 0-1-.4477153-1-1v-4c0-.5522847.4477153-1 1-1s1 .4477153 1 1v3.127c1.9494233.503298 3.2209506 2.377082 2.9685094 4.3745388-.2524412 1.9974567-1.9501654 3.4959829-3.9635094 3.4984612z" fill="#bdc3c7"/><path id="Shape" d="m57.99 45.88c.034494.2853097-.0554286.5716689-.2468331.7860419s-.4657871.3360357-.7531669.3339581h-1.83c-.4051646.0051076-.7694528.2479664-.93.62-.6143715 1.3305092-1.4158135 2.5663463-2.38 3.67-.3389815.3809291-.3214249.9602953.04 1.32.73.74 1.73 2.26 2.05 5.28.0387366.3670048-.1278079.7255126-.4332518.9326286-.3054439.2071161-.7001318.22917-1.0267482.0573714-2.1470543-1.199938-4.7629457-1.199938-6.91 0-.3279325.1689989-.7218835.1459564-1.0278776-.0601212-.305994-.2060776-.4754447-.562469-.4421224-.9298788.33-3.02 1.32-4.54 2.06-5.27.3583594-.3663943.3714743-.9478199.03-1.33-1.55-1.82-3.19-4.41-3.19-7.28 0-3.62 2.6-7.22 4.38-9.27.4163097-.4722149 1.0154759-.7427504 1.645-.7427504s1.2286903.2705355 1.645.7427504c1.532565 1.7080652 2.7664913 3.6620636 3.65 5.78 2.0515639 1.0504805 3.4325479 3.0673945 3.67 5.36z" fill="#84b5cb"/><circle id="Oval" cx="50" cy="40" fill="#285680" r="1"/><path id="Shape" d="m47 21v2c0 1.1045695.8954305 2 2 2s2-.8954305 2-2v-2l-2-2z" fill="#e64c3c"/><path id="Shape" d="m49 18c-.5522847 0-1-.4477153-1-1v-15.7c0-.55228475.4477153-1 1-1s1 .44771525 1 1v15.7c0 .5522847-.4477153 1-1 1z" fill="#7f8c8d"/><path id="Shape" d="m13.094 31.258-.682-1.881c1.832497-.7005457 3.3087618-2.1047976 4.1-3.9 1.2174242-2.9159821 1.2267765-6.1961231.026-9.119-.125232-.344068-.052409-.7290672.1898369-1.0036265.2422459-.2745592.6151755-.3947718.9721631-.3133735.039.008 4.174.941 6.87-1.232 1.678-1.356 2.5-3.685 2.444-6.921-.006334-.37339892.1959233-.71921314.5244805-.89674344.3285572-.17753029.7286594-.15719066 1.0375195.05274344.035.023 3.6 2.394 6.886 1.3 2.031-.673 3.6-2.557 4.67-5.6l1.886.662c-1.285 3.665-3.284 5.966-5.941 6.84-2.3771712.6508606-4.9115334.39311073-7.109-.723-.233 3.049-1.29 5.347-3.154 6.846-1.9945502 1.4546676-4.4595913 2.1138896-6.914 1.849.8798938 3.0073996.6749551 6.2283694-.579 9.1-1.0120611 2.279087-2.8944497 4.0581189-5.227 4.94z" fill="#7f8c8d"/><path id="Shape" d="m21.538 20c-.2126143-.0001948-.4196329-.0681501-.591-.194l-3.539-2.6c-.3153318-.2005527-.492526-.5601944-.4594043-.9324289s.2710316-.69494.6168196-.8366658.741746-.0788195 1.0265847.1630947l3.539 2.6c.3433351.2574797.4841015.7053198.3498179 1.1129258-.1342835.4076061-.5136724.684084-.9428179.6870742z" fill="#d25627"/><path id="Shape" d="m30.54 12c-.348712.0001546-.6723211-.1813545-.854-.479l-2.442-4c-.1903756-.30508367-.2022815-.68889333-.0311813-1.0051901.1711001-.31629678.4988551-.51636747.8583839-.5239813s.69546.17840181.8797974.4871714l2.442 4c.1883585.3085884.1954878.6948152.0186461 1.0101447-.1768416.3153296-.5101137.5106541-.8716461.5108553z" fill="#d25627"/><path id="Shape" d="m5.985 38.344c-.3306062-.0000025-.63984408-.1634055-.82613018-.4365317-.18628611-.2731263-.22554108-.6206714-.10486982-.9284683l1.935-4.954c.013-.033.029-.065.044-.1l4.189-8.06c3.6-7.25 12.32-19.882 30.153-22.855 2.5207106-.47941889 5.0664011-.81661854 7.625-1.01.5522847 0 1 .44771525 1 1s-.4477153 1-1 1c-2.442648.1989349-4.8730499.52706085-7.281.983-16.971 2.83-25.274 14.869-28.714 21.792l-4.172 8.025-1.916 4.9c-.14739332.3869055-.51797151.6429703-.932.644z" fill="#e57e25"/><path id="Shape" d="m15.34 30.64c-.255077.6118192-.7439308 1.0964333-1.3579486 1.3461714-.6140179.2497382-1.3023455.2439165-1.9120514-.0161714-.1548426-.064003-.3023566-.1444652-.44-.24v-.01c-.9842997-.6616638-1.3581668-1.9302914-.89-3.02.4611999-1.0926795 1.6266737-1.7109237 2.79-1.48.1627176.0408479.3229771.090929.48.15.6109219.2561539 1.0946499.7451014 1.3442326 1.3587372.2495828.6136358.2444611 1.301412-.0142326 1.9112628z" fill="#d25627"/><path id="Shape" d="m13.55 27.17-.02.05c-1.1633263-.2309237-2.3288001.3873205-2.79 1.48-.4681668 1.0897086-.0942997 2.3583362.89 3.02v.01h-.01l-.01.05c-.4372536 1.0151752-1.61098974 1.4882399-2.63 1.06l-1.84-.78c-1.01556519-.4314102-1.48988633-1.6037888-1.06-2.62l1.94-4.6c.43538787-1.0114917 1.60100548-1.4875264 2.62-1.07l1.85.78c1.013026.4339022 1.4863287 1.6037635 1.06 2.62z" fill="#f29c1f"/><path id="Shape" d="m51 19v2h-4v-2c.0032948-1.1032019.8967981-1.9967052 2-2 1.1011688.0081672 1.9918328.8988312 2 2z" fill="#ecf0f1"/><path id="Shape" d="m7.13 39.94-3.27 8.26c-.27976233.7185601-.95052686 1.2099341-1.72 1.26-.29598774.0200661-.59280696-.0242862-.87-.13-1.02647279-.4039739-1.53204859-1.5627716-1.13-2.59l3.26-8.26c.40316787-1.0300111 1.56498894-1.5381679 2.595-1.135s1.53816787 1.5649889 1.135 2.595z" fill="#a56a43"/></g></g></svg>